<?xml version="1.0" encoding="UTF-8" standalone="no"?>
<!-- Created with Inkscape (http://www.inkscape.org/) -->

<svg
   width="26.799999mm"
   height="6.1999998mm"
   viewBox="0 0 26.799999 6.1999998"
   version="1.1"
   id="svg5"
   xml:space="preserve"
   inkscape:version="1.2 (dc2aedaf03, 2022-05-15)"
   sodipodi:docname="logoMovies.svg"
   xmlns:inkscape="http://www.inkscape.org/namespaces/inkscape"
   xmlns:sodipodi="http://sodipodi.sourceforge.net/DTD/sodipodi-0.dtd"
   xmlns="http://www.w3.org/2000/svg"
   xmlns:svg="http://www.w3.org/2000/svg"><sodipodi:namedview
     id="namedview7"
     pagecolor="#000000"
     bordercolor="#000000"
     borderopacity="0.25"
     inkscape:showpageshadow="2"
     inkscape:pageopacity="0"
     inkscape:pagecheckerboard="0"
     inkscape:deskcolor="#d1d1d1"
     inkscape:document-units="mm"
     showgrid="false"
     inkscape:zoom="5.6945507"
     inkscape:cx="47.413749"
     inkscape:cy="14.926551"
     inkscape:window-width="1366"
     inkscape:window-height="745"
     inkscape:window-x="-8"
     inkscape:window-y="-8"
     inkscape:window-maximized="1"
     inkscape:current-layer="layer1" /><defs
     id="defs2" /><g
     inkscape:label="Capa 1"
     inkscape:groupmode="layer"
     id="layer1"><g
       id="g876"
       transform="translate(-1.649591,-2.3007443)"><text
         xml:space="preserve"
         style="font-size:4.39902px;font-family:'Josefin Sans';-inkscape-font-specification:'Josefin Sans';fill:#ffffff;stroke:#000000;stroke-width:0;stroke-linejoin:round"
         x="7.3307052"
         y="5.9537363"
         id="text236"
         transform="scale(0.96727963,1.0338272)"><tspan
           sodipodi:role="line"
           id="tspan234"
           x="7.3307052"
           y="5.9537363"
           style="fill:#ffffff;stroke-width:0">MoviesApp</tspan></text><g
         id="g536"
         transform="matrix(0.02845063,0,0,0.03289145,1.7425161,1.7457078)"
         style="fill:#ffffff"><g
           id="g473"
           style="fill:#ffffff">
	<g
   id="g471"
   style="fill:#ffffff">
		<g
   id="g469"
   style="fill:#ffffff">
			<path
   d="m 33.736,86.705 c 3.297,2.671 7.267,3.969 11.214,3.969 5.206,0 10.366,-2.258 13.891,-6.608 6.19,-7.651 5.009,-18.911 -2.638,-25.103 -3.703,-3 -8.336,-4.379 -13.101,-3.881 -4.741,0.498 -9.006,2.812 -12.008,6.518 -3.002,3.706 -4.377,8.357 -3.881,13.099 0.499,4.741 2.816,9.004 6.523,12.006 z m 3.525,-20.114 c 1.666,-2.059 4.036,-3.345 6.67,-3.622 0.353,-0.037 0.705,-0.054 1.054,-0.054 2.262,0 4.439,0.767 6.225,2.212 4.246,3.44 4.904,9.696 1.464,13.945 -3.44,4.251 -9.704,4.906 -13.949,1.466 -2.057,-1.668 -3.347,-4.036 -3.622,-6.67 -0.275,-2.634 0.489,-5.218 2.158,-7.277 z"
   id="path453"
   style="fill:#ffffff" />
			<path
   d="m 113.468,134.565 c -4.509,-1.551 -9.347,-1.257 -13.635,0.835 -4.284,2.09 -7.499,5.723 -9.053,10.232 -1.554,4.509 -1.255,9.353 0.833,13.635 2.092,4.286 5.725,7.501 10.234,9.053 1.902,0.656 3.866,0.982 5.826,0.982 2.673,0 5.334,-0.608 7.81,-1.815 4.284,-2.09 7.499,-5.724 9.053,-10.232 1.554,-4.508 1.255,-9.353 -0.837,-13.637 -2.088,-4.284 -5.722,-7.5 -10.231,-9.053 z m 3.564,20.106 c -0.86,2.506 -2.646,4.524 -5.028,5.685 -2.382,1.161 -5.063,1.33 -7.577,0.463 -2.503,-0.862 -4.52,-2.648 -5.683,-5.028 -1.162,-2.38 -1.325,-5.071 -0.461,-7.575 0.86,-2.506 2.646,-4.524 5.028,-5.685 1.395,-0.682 2.874,-1.003 4.331,-1.003 3.672,0 7.209,2.049 8.929,5.568 1.162,2.381 1.325,5.071 0.461,7.575 z"
   id="path455"
   style="fill:#ffffff" />
			<path
   d="m 150.694,107 c -2.526,-4.044 -6.477,-6.86 -11.125,-7.935 -4.633,-1.065 -9.421,-0.271 -13.473,2.256 -4.044,2.528 -6.86,6.477 -7.933,11.123 -2.212,9.589 3.789,19.192 13.38,21.408 1.344,0.31 2.688,0.459 4.013,0.459 8.123,0 15.491,-5.594 17.393,-13.837 1.073,-4.644 0.271,-9.43 -2.255,-13.474 z m -5.477,11.691 c -1.228,5.324 -6.551,8.652 -11.892,7.432 -5.326,-1.232 -8.662,-6.568 -7.43,-11.896 0.593,-2.58 2.161,-4.772 4.408,-6.176 1.596,-0.998 3.397,-1.511 5.233,-1.511 0.748,0 1.503,0.085 2.251,0.256 2.58,0.597 4.776,2.163 6.178,4.41 1.407,2.243 1.849,4.903 1.252,7.485 z"
   id="path457"
   style="fill:#ffffff" />
			<path
   d="m 52.403,112.444 c -1.073,-4.647 -3.889,-8.596 -7.933,-11.123 -4.044,-2.527 -8.832,-3.33 -13.473,-2.255 -4.649,1.073 -8.6,3.889 -11.125,7.933 -2.525,4.044 -3.328,8.83 -2.255,13.473 1.902,8.245 9.27,13.837 17.393,13.837 1.325,0 2.669,-0.147 4.013,-0.459 9.592,-2.214 15.592,-11.817 13.38,-21.406 z M 37.242,126.12 c -5.322,1.236 -10.66,-2.106 -11.892,-7.432 -0.597,-2.58 -0.155,-5.239 1.251,-7.484 1.402,-2.247 3.599,-3.814 6.178,-4.408 0.748,-0.173 1.503,-0.257 2.251,-0.257 1.836,0 3.637,0.513 5.233,1.511 2.247,1.404 3.816,3.597 4.408,6.176 1.232,5.328 -2.103,10.665 -7.429,11.894 z"
   id="path459"
   style="fill:#ffffff" />
			<path
   d="m 103.133,53.417 c 0,-9.843 -8.007,-17.85 -17.85,-17.85 -9.843,0 -17.85,8.007 -17.85,17.85 0,9.843 8.007,17.85 17.85,17.85 9.843,0 17.85,-8.007 17.85,-17.85 z m -17.85,9.916 c -5.47,0 -9.917,-4.449 -9.917,-9.917 0,-5.468 4.447,-9.917 9.917,-9.917 5.47,0 9.917,4.449 9.917,9.917 0,5.468 -4.447,9.917 -9.917,9.917 z"
   id="path461"
   style="fill:#ffffff" />
			<path
   d="m 125.616,90.674 c 3.947,0 7.918,-1.298 11.214,-3.969 3.707,-3.002 6.024,-7.265 6.523,-12.008 0.496,-4.741 -0.879,-9.394 -3.881,-13.099 -6.194,-7.647 -17.459,-8.826 -25.105,-2.638 -7.651,6.194 -8.832,17.455 -2.642,25.105 3.525,4.35 8.685,6.609 13.891,6.609 z m -6.26,-25.547 c 4.257,-3.446 10.509,-2.783 13.949,1.464 1.67,2.059 2.433,4.643 2.157,7.277 -0.275,2.634 -1.565,5.003 -3.622,6.67 -4.257,3.446 -10.505,2.785 -13.949,-1.466 -3.439,-4.249 -2.78,-10.505 1.465,-13.945 z"
   id="path463"
   style="fill:#ffffff" />
			<path
   d="m 70.734,135.4 c -4.288,-2.092 -9.127,-2.388 -13.635,-0.835 -4.508,1.553 -8.142,4.768 -10.23,9.053 -2.092,4.284 -2.39,9.128 -0.837,13.637 1.553,4.509 4.768,8.142 9.053,10.232 2.475,1.207 5.136,1.815 7.81,1.815 1.956,0 3.924,-0.325 5.826,-0.982 4.509,-1.551 8.142,-4.767 10.23,-9.051 2.092,-4.284 2.39,-9.128 0.837,-13.637 -1.553,-4.509 -4.77,-8.143 -9.054,-10.232 z m 1.084,20.393 c -1.158,2.378 -3.177,4.164 -5.679,5.026 -2.51,0.868 -5.195,0.697 -7.577,-0.463 -2.382,-1.16 -4.168,-3.178 -5.028,-5.685 -0.864,-2.504 -0.701,-5.195 0.461,-7.575 1.72,-3.519 5.257,-5.568 8.929,-5.568 1.457,0 2.936,0.322 4.331,1.003 2.382,1.16 4.168,3.178 5.028,5.685 0.864,2.504 0.701,5.194 -0.465,7.577 z"
   id="path465"
   style="fill:#ffffff" />
			<path
   d="m 210.209,185.862 c -0.239,-2.175 -2.176,-3.761 -4.38,-3.504 -32.059,3.517 -44.853,-33.426 -45.384,-35.001 -0.135,-0.403 -0.371,-0.734 -0.61,-1.059 6.817,-12.251 10.733,-26.328 10.733,-41.315 C 170.568,57.958 132.311,19.7 85.285,19.7 38.259,19.7 0,57.959 0,104.983 c 0,47.024 38.257,85.283 85.283,85.283 28.642,0 53.972,-14.238 69.445,-35.959 4.734,10.535 19.118,36.226 46.808,36.226 1.674,0 3.397,-0.095 5.167,-0.292 2.177,-0.24 3.746,-2.202 3.506,-4.379 z M 85.283,182.333 c -42.65,0 -77.35,-34.699 -77.35,-77.35 0,-42.651 34.7,-77.35 77.35,-77.35 42.65,0 77.35,34.699 77.35,77.35 0,42.651 -34.7,77.35 -77.35,77.35 z"
   id="path467"
   style="fill:#ffffff" />
		</g>
	</g>
</g><g
           id="g475"
           style="fill:#ffffff">
</g><g
           id="g477"
           style="fill:#ffffff">
</g><g
           id="g479"
           style="fill:#ffffff">
</g><g
           id="g481"
           style="fill:#ffffff">
</g><g
           id="g483"
           style="fill:#ffffff">
</g><g
           id="g485"
           style="fill:#ffffff">
</g><g
           id="g487"
           style="fill:#ffffff">
</g><g
           id="g489"
           style="fill:#ffffff">
</g><g
           id="g491"
           style="fill:#ffffff">
</g><g
           id="g493"
           style="fill:#ffffff">
</g><g
           id="g495"
           style="fill:#ffffff">
</g><g
           id="g497"
           style="fill:#ffffff">
</g><g
           id="g499"
           style="fill:#ffffff">
</g><g
           id="g501"
           style="fill:#ffffff">
</g><g
           id="g503"
           style="fill:#ffffff">
</g></g><g
         id="g613"
         transform="matrix(0.15028085,0,0,0.17355931,-4.9506238,8.7082808)"><g
           id="g625"
           transform="translate(48.095789,28.015722)"><g
             id="g637"
             transform="matrix(0.50225543,0,0,0.36901528,39.351101,-39.373448)"><path
               class="st1"
               d="m 100.8,24.5 v 0 0 c -0.1,0 0,0 0,0 z"
               id="path587" /><path
               class="st2"
               d="M 0,19 8.5,1.6 h 2.6 l 1.3,2.6 1.3,2.6 6,12.3 H 17.1 L 12.4,9.4 11.1,6.8 9.9,4.1 2.6,19 Z"
               id="path591" /><path
               class="st2"
               d="M 5.1,19 13.6,1.5 h 2.6 l 1.3,2.6 1.3,2.6 6,12.3 H 22.2 L 17.5,9.3 16.2,6.7 15,4.1 7.7,19 Z"
               id="path593" /><text
               xml:space="preserve"
               style="font-size:26.7803px;font-family:'Josefin Sans';-inkscape-font-specification:'Josefin Sans';fill:#ffffff;stroke:#000000;stroke-width:0;stroke-linejoin:round"
               x="24.496035"
               y="19.178041"
               id="text693"
               transform="scale(1.0679339,0.93638755)"><tspan
                 sodipodi:role="line"
                 id="tspan691"
                 x="24.496035"
                 y="19.178041"
                 style="font-style:normal;font-variant:normal;font-weight:300;font-stretch:normal;font-family:'Josefin Sans';-inkscape-font-specification:'Josefin Sans Light';stroke-width:0">alkemy challenge</tspan></text></g></g></g></g></g><style
     type="text/css"
     id="style569">
	.st0{fill:#C9C9C9;}
	.st1{fill:#222222;}
	.st2{fill:#58C1F5;}
</style></svg>
